<svg width="20" height="25" viewBox="0 0 20 25" fill="none" xmlns="http://www.w3.org/2000/svg">
<path d="M16.25 0H3.75C1.625 0 0 1.625 0 3.75V11.25H10.75L7.875 8.375C7.375 7.875 7.375 7.125 7.875 6.625C8.375 6.125 9.125 6.125 9.625 6.625L14.625 11.625C15.125 12.125 15.125 12.875 14.625 13.375L9.625 18.375C9.125 18.875 8.375 18.875 7.875 18.375C7.375 17.875 7.375 17.125 7.875 16.625L10.75 13.75H0V21.25C0 23.375 1.625 25 3.75 25H16.25C18.375 25 20 23.375 20 21.25V3.75C20 1.625 18.375 0 16.25 0Z" fill="#C54040"/>
</svg>
